<svg xmlns="http://www.w3.org/2000/svg" viewBox="0 0 1440 1010" width="1440" height="1010" font-family="ui-sans-serif,-apple-system,Segoe UI,Roboto,Helvetica,Arial,sans-serif">
<rect width="1440" height="1010" fill="#ffffff"/>
<defs><marker id="a-data" viewBox="0 0 9 9" refX="8" refY="4.5" markerWidth="6.5" markerHeight="6.5" orient="auto"><path d="M0,0 L9,4.5 L0,9 z" fill="#1e3a5f"/></marker><marker id="a-ctrl" viewBox="0 0 9 9" refX="8" refY="4.5" markerWidth="6.5" markerHeight="6.5" orient="auto"><path d="M0,0 L9,4.5 L0,9 z" fill="#2563eb"/></marker><marker id="a-fwd" viewBox="0 0 9 9" refX="8" refY="4.5" markerWidth="6.5" markerHeight="6.5" orient="auto"><path d="M0,0 L9,4.5 L0,9 z" fill="#d97706"/></marker><marker id="a-bnd" viewBox="0 0 9 9" refX="8" refY="4.5" markerWidth="6.5" markerHeight="6.5" orient="auto"><path d="M0,0 L9,4.5 L0,9 z" fill="#dc2626"/></marker><marker id="a-ok" viewBox="0 0 9 9" refX="8" refY="4.5" markerWidth="6.5" markerHeight="6.5" orient="auto"><path d="M0,0 L9,4.5 L0,9 z" fill="#059669"/></marker></defs>
<text x="26" y="40" font-size="21" fill="#1f2937" text-anchor="start" font-weight="600" >Forwarding &#8212; two independent units</text>
<text x="26" y="62" font-size="13" fill="#6b7280" text-anchor="start" font-weight="400" >forwarding_unit feeds the EX stage; forwarding_id feeds the branch comparator in ID. Both give priority to</text>
<text x="26" y="79" font-size="13" fill="#6b7280" text-anchor="start" font-weight="400" >EX/MEM over MEM/WB, because EX/MEM carries the more recent write to the same register.</text>
<text x="26" y="96" font-size="12" fill="#9ca3af" text-anchor="start" font-weight="400" font-family="ui-monospace,SFMono-Regular,Menlo,Consolas,monospace" >src/core/a.k-forwarding_unit.vhd &#183; src/core/a.l-forwarding_id.vhd</text>
<text x="60" y="150" font-size="15" fill="#1f2937" text-anchor="start" font-weight="700" >1 · EX forwarding — FORWARD_A / FORWARD_B</text>
<rect x="60" y="186" width="180" height="46" rx="6" fill="#fee2e2" stroke="#dc2626" stroke-width="1.6"/>
<text x="150.0" y="213.5" font-size="12" fill="#1f2937" text-anchor="middle" font-weight="600" >ID/EX.RegA</text>
<rect x="60" y="244" width="180" height="46" rx="6" fill="#fef3c7" stroke="#b45309" stroke-width="1.6"/>
<text x="150.0" y="271.5" font-size="12" fill="#1f2937" text-anchor="middle" font-weight="600" >EX/MEM.alu_out</text>
<rect x="60" y="302" width="180" height="46" rx="6" fill="#f3e8ff" stroke="#7c3aed" stroke-width="1.6"/>
<text x="150.0" y="329.5" font-size="12" fill="#1f2937" text-anchor="middle" font-weight="600" >wb_data (MEM/WB)</text>
<path d="M470,196 L504,208 L504,336 L470,348 Z" fill="#f1f5f9" stroke="#475569" stroke-width="1.5"/>
<text x="487.0" y="276.0" font-size="10.5" fill="#6b7280" text-anchor="middle" font-weight="600" >3:1</text>
<path d="M240,209 L470,226" fill="none" stroke="#1e3a5f" stroke-width="1.6" stroke-linecap="round" marker-end="url(#a-data)"/>
<text x="248" y="203" font-size="10" fill="#6b7280" text-anchor="start" font-weight="400" font-family="ui-monospace,SFMono-Regular,Menlo,Consolas,monospace" >“00”</text>
<path d="M240,267 L470,272" fill="none" stroke="#1e3a5f" stroke-width="1.6" stroke-linecap="round" marker-end="url(#a-data)"/>
<text x="248" y="261" font-size="10" fill="#6b7280" text-anchor="start" font-weight="400" font-family="ui-monospace,SFMono-Regular,Menlo,Consolas,monospace" >“10”</text>
<path d="M240,325 L470,318" fill="none" stroke="#1e3a5f" stroke-width="1.6" stroke-linecap="round" marker-end="url(#a-data)"/>
<text x="248" y="319" font-size="10" fill="#6b7280" text-anchor="start" font-weight="400" font-family="ui-monospace,SFMono-Regular,Menlo,Consolas,monospace" >“01”</text>
<path d="M504,272 L560,272" fill="none" stroke="#1e3a5f" stroke-width="1.6" stroke-linecap="round" marker-end="url(#a-data)"/>
<text x="566" y="276" font-size="12" fill="#1f2937" text-anchor="start" font-weight="600" >a_fwd → ALU port A</text>
<path d="M487,372 L487,348" fill="none" stroke="#2563eb" stroke-width="1.6" stroke-linecap="round" marker-end="url(#a-ctrl)"/>
<text x="487" y="390" font-size="11" fill="#2563eb" text-anchor="middle" font-weight="700" >FORWARD_A</text>
<text x="830" y="166" font-size="12.5" fill="#1f2937" text-anchor="start" font-weight="700" >Selector encoding (identical for A and B)</text>
<rect x="830" y="178" width="540" height="42" rx="6" fill="#ffffff" stroke="#e5e7eb" stroke-width="1.2"/>
<rect x="830" y="178" width="5" height="42" rx="2" fill="#059669"/>
<text x="848" y="204" font-size="11.5" fill="#6b7280" text-anchor="start" font-weight="400" >EX/MEM writes Rd = Rs  and  Rd ≠ R0</text>
<text x="1202" y="204" font-size="12" fill="#1f2937" text-anchor="middle" font-weight="700" font-family="ui-monospace,SFMono-Regular,Menlo,Consolas,monospace" >“10”</text>
<text x="1270" y="204" font-size="11" fill="#1f2937" text-anchor="middle" font-weight="600" >EX/MEM.alu_out</text>
<rect x="830" y="228" width="540" height="42" rx="6" fill="#ffffff" stroke="#e5e7eb" stroke-width="1.2"/>
<rect x="830" y="228" width="5" height="42" rx="2" fill="#2563eb"/>
<text x="848" y="254" font-size="11.5" fill="#6b7280" text-anchor="start" font-weight="400" >otherwise MEM/WB writes Rd = Rs ≠ R0</text>
<text x="1202" y="254" font-size="12" fill="#1f2937" text-anchor="middle" font-weight="700" font-family="ui-monospace,SFMono-Regular,Menlo,Consolas,monospace" >“01”</text>
<text x="1270" y="254" font-size="11" fill="#1f2937" text-anchor="middle" font-weight="600" >wb_data</text>
<rect x="830" y="278" width="540" height="42" rx="6" fill="#ffffff" stroke="#e5e7eb" stroke-width="1.2"/>
<rect x="830" y="278" width="5" height="42" rx="2" fill="#9ca3af"/>
<text x="848" y="304" font-size="11.5" fill="#6b7280" text-anchor="start" font-weight="400" >no match</text>
<text x="1202" y="304" font-size="12" fill="#1f2937" text-anchor="middle" font-weight="700" font-family="ui-monospace,SFMono-Regular,Menlo,Consolas,monospace" >“00”</text>
<text x="1270" y="304" font-size="11" fill="#1f2937" text-anchor="middle" font-weight="600" >Register File output</text>
<text x="60" y="436" font-size="14" fill="#1f2937" text-anchor="start" font-weight="700" >2 · Load-use hazard — the one case forwarding cannot cover (1 stall)</text>
<text x="331.0" y="460" font-size="10.5" fill="#6b7280" text-anchor="middle" font-weight="600" >cycle 1</text>
<text x="415.0" y="460" font-size="10.5" fill="#6b7280" text-anchor="middle" font-weight="600" >cycle 2</text>
<text x="499.0" y="460" font-size="10.5" fill="#6b7280" text-anchor="middle" font-weight="600" >cycle 3</text>
<text x="583.0" y="460" font-size="10.5" fill="#6b7280" text-anchor="middle" font-weight="600" >cycle 4</text>
<text x="667.0" y="460" font-size="10.5" fill="#6b7280" text-anchor="middle" font-weight="600" >cycle 5</text>
<text x="751.0" y="460" font-size="10.5" fill="#6b7280" text-anchor="middle" font-weight="600" >cycle 6</text>
<text x="835.0" y="460" font-size="10.5" fill="#6b7280" text-anchor="middle" font-weight="600" >cycle 7</text>
<text x="282" y="494.5" font-size="12" fill="#1f2937" text-anchor="end" font-weight="600" font-family="ui-monospace,SFMono-Regular,Menlo,Consolas,monospace" >lw   r24,0(r3)</text>
<rect x="292" y="470" width="78" height="40" rx="6" fill="#e0e7ff" stroke="#4338ca" stroke-width="1.5"/>
<text x="331.0" y="494.5" font-size="12" fill="#1f2937" text-anchor="middle" font-weight="700" >IF</text>
<rect x="376" y="470" width="78" height="40" rx="6" fill="#dbeafe" stroke="#2563eb" stroke-width="1.5"/>
<text x="415.0" y="494.5" font-size="12" fill="#1f2937" text-anchor="middle" font-weight="700" >ID</text>
<rect x="460" y="470" width="78" height="40" rx="6" fill="#dcfce7" stroke="#16a34a" stroke-width="1.5"/>
<text x="499.0" y="494.5" font-size="12" fill="#1f2937" text-anchor="middle" font-weight="700" >EX</text>
<rect x="544" y="470" width="78" height="40" rx="6" fill="#fef3c7" stroke="#b45309" stroke-width="1.5"/>
<text x="583.0" y="494.5" font-size="12" fill="#1f2937" text-anchor="middle" font-weight="700" >MEM</text>
<rect x="628" y="470" width="78" height="40" rx="6" fill="#f3e8ff" stroke="#7c3aed" stroke-width="1.5"/>
<text x="667.0" y="494.5" font-size="12" fill="#1f2937" text-anchor="middle" font-weight="700" >WB</text>
<text x="282" y="540.5" font-size="12" fill="#1f2937" text-anchor="end" font-weight="600" font-family="ui-monospace,SFMono-Regular,Menlo,Consolas,monospace" >add  r25,r24,r1</text>
<rect x="376" y="516" width="78" height="40" rx="6" fill="#e0e7ff" stroke="#4338ca" stroke-width="1.5"/>
<text x="415.0" y="540.5" font-size="12" fill="#1f2937" text-anchor="middle" font-weight="700" >IF</text>
<rect x="460" y="516" width="78" height="40" rx="6" fill="#dbeafe" stroke="#2563eb" stroke-width="1.5"/>
<text x="499.0" y="540.5" font-size="12" fill="#1f2937" text-anchor="middle" font-weight="700" >ID</text>
<rect x="544" y="516" width="78" height="40" rx="6" fill="#fee2e2" stroke="#dc2626" stroke-width="1.5"/>
<text x="583.0" y="540.5" font-size="12" fill="#1f2937" text-anchor="middle" font-weight="700" >stall</text>
<rect x="628" y="516" width="78" height="40" rx="6" fill="#dcfce7" stroke="#16a34a" stroke-width="1.5"/>
<text x="667.0" y="540.5" font-size="12" fill="#1f2937" text-anchor="middle" font-weight="700" >EX</text>
<rect x="712" y="516" width="78" height="40" rx="6" fill="#fef3c7" stroke="#b45309" stroke-width="1.5"/>
<text x="751.0" y="540.5" font-size="12" fill="#1f2937" text-anchor="middle" font-weight="700" >MEM</text>
<rect x="796" y="516" width="78" height="40" rx="6" fill="#f3e8ff" stroke="#7c3aed" stroke-width="1.5"/>
<text x="835.0" y="540.5" font-size="12" fill="#1f2937" text-anchor="middle" font-weight="700" >WB</text>
<text x="282" y="586.5" font-size="12" fill="#1f2937" text-anchor="end" font-weight="600" font-family="ui-monospace,SFMono-Regular,Menlo,Consolas,monospace" >lw   r26,4(r3)</text>
<rect x="460" y="562" width="78" height="40" rx="6" fill="#e0e7ff" stroke="#4338ca" stroke-width="1.5"/>
<text x="499.0" y="586.5" font-size="12" fill="#1f2937" text-anchor="middle" font-weight="700" >IF</text>
<rect x="544" y="562" width="78" height="40" rx="6" fill="#fee2e2" stroke="#dc2626" stroke-width="1.5"/>
<text x="583.0" y="586.5" font-size="12" fill="#1f2937" text-anchor="middle" font-weight="700" >stall</text>
<rect x="628" y="562" width="78" height="40" rx="6" fill="#dbeafe" stroke="#2563eb" stroke-width="1.5"/>
<text x="667.0" y="586.5" font-size="12" fill="#1f2937" text-anchor="middle" font-weight="700" >ID</text>
<rect x="712" y="562" width="78" height="40" rx="6" fill="#dcfce7" stroke="#16a34a" stroke-width="1.5"/>
<text x="751.0" y="586.5" font-size="12" fill="#1f2937" text-anchor="middle" font-weight="700" >EX</text>
<rect x="796" y="562" width="78" height="40" rx="6" fill="#fef3c7" stroke="#b45309" stroke-width="1.5"/>
<text x="835.0" y="586.5" font-size="12" fill="#1f2937" text-anchor="middle" font-weight="700" >MEM</text>
<path d="M688,510 L717,510 Q724,510 724,517 L724,529 Q724,536 717,536 L706,536" fill="none" stroke="#d97706" stroke-width="2.2" stroke-linecap="round" marker-end="url(#a-fwd)"/>
<text x="738" y="510" font-size="11" fill="#d97706" text-anchor="start" font-weight="600" >wb_data forwarded into EX in the very next cycle</text>
<text x="60" y="636" font-size="11.5" fill="#6b7280" text-anchor="start" font-weight="400" >hazard_detector sees a LOAD in EX (EX_RF_WE=1 and EX_WB_MUX_SEL=1) whose Rd matches Rs1 or Rs2 in ID.</text>
<text x="60" y="654" font-size="11.5" fill="#6b7280" text-anchor="start" font-weight="400" >The CU freezes PC and IF/ID and clears ID/EX, injecting one bubble. After that the load is in MEM/WB and the “01” channel delivers the data.</text>
<text x="60" y="704" font-size="14" fill="#1f2937" text-anchor="start" font-weight="700" >3 · Branch stall — the price of resolving branches in DECODE (1 stall, then a flush)</text>
<text x="331.0" y="728" font-size="10.5" fill="#6b7280" text-anchor="middle" font-weight="600" >cycle 1</text>
<text x="415.0" y="728" font-size="10.5" fill="#6b7280" text-anchor="middle" font-weight="600" >cycle 2</text>
<text x="499.0" y="728" font-size="10.5" fill="#6b7280" text-anchor="middle" font-weight="600" >cycle 3</text>
<text x="583.0" y="728" font-size="10.5" fill="#6b7280" text-anchor="middle" font-weight="600" >cycle 4</text>
<text x="667.0" y="728" font-size="10.5" fill="#6b7280" text-anchor="middle" font-weight="600" >cycle 5</text>
<text x="751.0" y="728" font-size="10.5" fill="#6b7280" text-anchor="middle" font-weight="600" >cycle 6</text>
<text x="835.0" y="728" font-size="10.5" fill="#6b7280" text-anchor="middle" font-weight="600" >cycle 7</text>
<text x="282" y="762.5" font-size="12" fill="#1f2937" text-anchor="end" font-weight="600" font-family="ui-monospace,SFMono-Regular,Menlo,Consolas,monospace" >addi r5,r0,#0</text>
<rect x="292" y="738" width="78" height="40" rx="6" fill="#e0e7ff" stroke="#4338ca" stroke-width="1.5"/>
<text x="331.0" y="762.5" font-size="12" fill="#1f2937" text-anchor="middle" font-weight="700" >IF</text>
<rect x="376" y="738" width="78" height="40" rx="6" fill="#dbeafe" stroke="#2563eb" stroke-width="1.5"/>
<text x="415.0" y="762.5" font-size="12" fill="#1f2937" text-anchor="middle" font-weight="700" >ID</text>
<rect x="460" y="738" width="78" height="40" rx="6" fill="#dcfce7" stroke="#16a34a" stroke-width="1.5"/>
<text x="499.0" y="762.5" font-size="12" fill="#1f2937" text-anchor="middle" font-weight="700" >EX</text>
<rect x="544" y="738" width="78" height="40" rx="6" fill="#fef3c7" stroke="#b45309" stroke-width="1.5"/>
<text x="583.0" y="762.5" font-size="12" fill="#1f2937" text-anchor="middle" font-weight="700" >MEM</text>
<rect x="628" y="738" width="78" height="40" rx="6" fill="#f3e8ff" stroke="#7c3aed" stroke-width="1.5"/>
<text x="667.0" y="762.5" font-size="12" fill="#1f2937" text-anchor="middle" font-weight="700" >WB</text>
<text x="282" y="808.5" font-size="12" fill="#1f2937" text-anchor="end" font-weight="600" font-family="ui-monospace,SFMono-Regular,Menlo,Consolas,monospace" >beqz r5,taken1</text>
<rect x="376" y="784" width="78" height="40" rx="6" fill="#e0e7ff" stroke="#4338ca" stroke-width="1.5"/>
<text x="415.0" y="808.5" font-size="12" fill="#1f2937" text-anchor="middle" font-weight="700" >IF</text>
<rect x="460" y="784" width="78" height="40" rx="6" fill="#fee2e2" stroke="#dc2626" stroke-width="1.5"/>
<text x="499.0" y="808.5" font-size="12" fill="#1f2937" text-anchor="middle" font-weight="700" >stall</text>
<rect x="544" y="784" width="78" height="40" rx="6" fill="#dbeafe" stroke="#2563eb" stroke-width="1.5"/>
<text x="583.0" y="808.5" font-size="12" fill="#1f2937" text-anchor="middle" font-weight="700" >ID</text>
<rect x="628" y="784" width="78" height="40" rx="6" fill="#dcfce7" stroke="#16a34a" stroke-width="1.5"/>
<text x="667.0" y="808.5" font-size="12" fill="#1f2937" text-anchor="middle" font-weight="700" >EX</text>
<rect x="712" y="784" width="78" height="40" rx="6" fill="#fef3c7" stroke="#b45309" stroke-width="1.5"/>
<text x="751.0" y="808.5" font-size="12" fill="#1f2937" text-anchor="middle" font-weight="700" >MEM</text>
<rect x="796" y="784" width="78" height="40" rx="6" fill="#f3e8ff" stroke="#7c3aed" stroke-width="1.5"/>
<text x="835.0" y="808.5" font-size="12" fill="#1f2937" text-anchor="middle" font-weight="700" >WB</text>
<text x="282" y="854.5" font-size="12" fill="#1f2937" text-anchor="end" font-weight="600" font-family="ui-monospace,SFMono-Regular,Menlo,Consolas,monospace" >addi r5,r0,#999</text>
<rect x="460" y="830" width="78" height="40" rx="6" fill="#e0e7ff" stroke="#4338ca" stroke-width="1.5"/>
<text x="499.0" y="854.5" font-size="12" fill="#1f2937" text-anchor="middle" font-weight="700" >IF</text>
<rect x="544" y="830" width="78" height="40" rx="6" fill="#fee2e2" stroke="#dc2626" stroke-width="1.5"/>
<text x="583.0" y="854.5" font-size="12" fill="#1f2937" text-anchor="middle" font-weight="700" >stall</text>
<rect x="628" y="830" width="78" height="40" rx="6" fill="#f8fafc" stroke="#cbd5e1" stroke-width="1.5"/>
<text x="667.0" y="854.5" font-size="12" fill="#1f2937" text-anchor="middle" font-weight="700" ></text>
<path d="M604,778 L633,778 Q640,778 640,785 L640,797 Q640,804 633,804 L622,804" fill="none" stroke="#d97706" stroke-width="2.2" stroke-linecap="round" marker-end="url(#a-fwd)"/>
<text x="824" y="778" font-size="11" fill="#d97706" text-anchor="start" font-weight="600" >EX/MEM.alu_out → zero_check via forwarding_id</text>
<text x="667" y="855" font-size="10.5" fill="#dc2626" text-anchor="middle" font-weight="700" >flushed</text>
<text x="60" y="904" font-size="11.5" fill="#6b7280" text-anchor="start" font-weight="400" >The branch reads Rs1 in ID while the producer is still in EX, so no forwarding path exists yet: branch_stall_alarm buys one cycle.</text>
<text x="60" y="922" font-size="11.5" fill="#6b7280" text-anchor="start" font-weight="400" >If the producer is a LOAD the stall lasts two cycles, because exmem_alu_out holds the address, not the loaded word.</text>
<line x1="60" y1="966" x2="82" y2="966" stroke="#d97706" stroke-width="2.4"/>
<text x="89" y="970" font-size="11.5" fill="#6b7280" text-anchor="start" font-weight="400" >forwarding path</text>
<line x1="290" y1="966" x2="312" y2="966" stroke="#dc2626" stroke-width="2.4"/>
<text x="319" y="970" font-size="11.5" fill="#6b7280" text-anchor="start" font-weight="400" >flushed instruction</text>
<line x1="520" y1="966" x2="542" y2="966" stroke="#dc2626" stroke-width="2.4"/>
<text x="549" y="970" font-size="11.5" fill="#6b7280" text-anchor="start" font-weight="400" >stall / bubble</text>
</svg>